<?xml version="1.0" encoding="UTF-8"?>
<svg width="2595px" height="2432px" viewBox="0 0 2595 2432" version="1.1" xmlns="http://www.w3.org/2000/svg" xmlns:xlink="http://www.w3.org/1999/xlink">
    <!-- Generator: Sketch 53.1 (72631) - https://sketchapp.com -->
    <title>Combined Shape</title>
    <desc>Created with Sketch.</desc>
    <defs>
        <radialGradient cx="49.9997733%" cy="49.9996652%" fx="49.9997733%" fy="49.9996652%" r="61.5257605%" gradientTransform="translate(0.499998,0.499997),scale(0.937096,1.000000),translate(-0.499998,-0.499997)" id="radialGradient-1">
            <stop stop-color="#FAA645" offset="0%"></stop>
            <stop stop-color="#FF563E" offset="100%"></stop>
        </radialGradient>
    </defs>
    <g id="Page-1" stroke="none" stroke-width="1" fill="none" fill-rule="evenodd">
        <path d="M1085.4,1736.68 L1085.39,1737.65 C1071.14667,1794.67291 1044.76251,1847.94946 1008.04,1893.84 C976.319211,1934.69407 939.331467,1971.17071 898.04,2002.32 C860.555709,2031.58191 820.720524,2057.70055 778.94,2080.41 C758.81,2091.04 738.5,2102.41 718.18,2111.91 L660.4,2138.38 L439.53,2236.38 C300.68,2298.63 162.75,2359.21 17,2430.78 C12.6021905,2432.94471 7.32233951,2432.14928 3.75749961,2428.78497 C0.192659701,2425.42065 -0.906769158,2420.19563 1,2415.68 C36.7200401,2346.65316 81.7618789,2282.86576 134.86,2226.11 C193.66384,2161.53889 258.512848,2102.74416 328.52,2050.53 C397.354453,1998.22019 469.996111,1951.11943 545.84,1909.62 L648.92,1852.62 C680.41,1833.42 710.98,1814.04 738.75,1793.91 C793.92,1753.09 835.49,1709.85 852.08,1670.15 C861.501638,1648.37762 865.588287,1624.67026 864,1601 C862.144981,1568.12959 855.875396,1535.65826 845.36,1504.46 L805.28,1385.36 C791.611232,1342.65745 780.899228,1299.06434 773.22,1254.89 C760.07855,1180.99811 759.011355,1105.46366 770.06,1031.23 C770.711545,1025.90524 774.943561,1021.73 780.276631,1021.15042 C785.609701,1020.57084 790.639826,1023.73951 792.42,1028.8 C818.038791,1093.14888 848.509828,1155.45822 883.57,1215.19 C924.57,1285.06 970,1344.52 1020,1420.19 C1048.02701,1462.90804 1069.32855,1509.67632 1083.16,1558.86 C1098.67017,1617.02646 1099.44003,1678.14129 1085.4,1736.68 Z M1196.67,1208.27 L1197.42,1208.33 C1177.86941,1156.81113 1165.33054,1102.8987 1160.14,1048.04 C1154.77877,997.840138 1153.4712,947.289899 1156.23,896.88 C1157.91,872.46 1158.84,847.86 1161.63,824.19 L1170.21,757.09 L1205.21,502.49 C1226.64,342.2 1249.19,183.58 1265.97,11.73 C1266.51234,6.58046258 1270.17584,2.29955587 1275.17976,0.968136604 C1280.18368,-0.363282667 1285.49022,1.53091466 1288.52,5.73 C1330.72426,76.6636545 1363.02385,153.038733 1384.52,232.73 C1409.90911,322.075852 1426.76133,413.629672 1434.85,506.16 C1443.66232,597.647514 1445.71789,689.66022 1441,781.45 L1434.92,906.51 C1434.52,946.03 1435.1,983.3 1437.52,1020.58 C1443.68,1093.46 1459.52,1154.97 1485.99,1192.24 C1500.38594,1213.00677 1519.56076,1230.01067 1541.9,1241.82 C1572.74666,1258.58606 1605.70906,1271.12523 1639.9,1279.1 L1770.37,1309.48 C1816.05115,1320.99797 1860.88948,1335.63223 1904.57,1353.28 C1978.68432,1382.58218 2047.5012,1423.82096 2108.29,1475.36 C2112.51973,1478.99794 2113.82386,1484.99984 2111.4852,1490.06501 C2109.14654,1495.13017 2103.7323,1498.0301 2098.22,1497.17 C2025.54364,1484.00294 1951.94223,1476.58663 1878.1,1474.99 C1792.74,1473.13 1713.52,1480.77 1617.16,1483.56 C1562.87448,1484.96216 1508.69405,1478.04881 1456.5,1463.06 C1395.21185,1444.48861 1339.49232,1410.99367 1294.34,1365.58 C1250.94881,1320.69975 1217.64868,1267.06564 1196.67,1208.27 Z M2590.47,2389.59 L2589.54,2389.22 C2593.65054,2391.98763 2595.58289,2397.03661 2594.37048,2401.84144 C2593.15807,2406.64627 2589.06154,2410.17398 2584.13,2410.66 C2506.4529,2413.06899 2428.81323,2404.79155 2353.39,2386.06 C2268.17496,2366.31914 2185.04065,2338.4827 2105.12,2302.93 C2025.81164,2268.05163 1949.18378,2227.37128 1875.86,2181.22 L1775.96,2119.15 C1743.72,2100.89 1712.03,2083.55 1680.9,2069.2 C1618.28,2040.87 1560.13,2025.59 1517.63,2030.43 C1493.94677,2032.68152 1471.17102,2040.67964 1451.28,2053.73 C1423.64049,2071.55747 1398.55681,2093.06498 1376.72,2117.66 L1292.1,2210.85 C1261.58007,2243.40909 1228.88849,2273.86221 1194.25,2302 C1136.32461,2349.60396 1070.97964,2387.37925 1000.82,2413.82 C995.772445,2415.87442 989.974756,2414.18525 986.820543,2409.74122 C983.666329,2405.29719 983.98499,2399.26685 987.59,2395.18 C1031.81375,2341.36941 1071.81917,2284.22645 1107.25,2224.26 C1147.69,2154.55 1177.52,2085.78 1219.08,2005.45 C1242.72772,1960.16171 1273.21955,1918.79199 1309.48,1882.8 C1352.906,1841.21724 1406.00893,1811.11034 1463.99,1795.2 C1520.66362,1779.85661 1579.98237,1776.93331 1637.89,1786.63 C1689.30352,1794.30963 1739.45424,1808.8527 1787,1829.87 C1830.75931,1848.34704 1872.9448,1870.34945 1913.14,1895.66 C1933.09,1907.78 1951.72,1919.94 1970.36,1932.94 L2021.62,1970.22 L2214.9,2115.41 C2336.8,2206.37 2456.83,2296.39 2590.47,2389.59 Z" id="Combined-Shape" fill="url(#radialGradient-1)" fill-rule="nonzero"></path>
    </g>
</svg>